:SAMPLES-PER-SECOND 30
:FULLY-SPECIFIED
:DEGREES
392
root  -2.12558 31.0074 -15.6313 -104.462 -88.2958 102.357
RightUpLeg  -41.8729 -28.8129 -0.954907
RightLeg  79.0759 -2.58618 -17.4666
RightFoot  -28.7712 1.18698 8.97189
RightToes  -1.33073e-015 0 -3.6325e-017
Spine  35.4185 0.507163 -1.18828
Spine1  -20.6564 0.276571 -1.80525
HEad  -13.0947 11.2476 -4.09202
LeftShoulder1  0.754807 10.4189 22.0292
LeftArm  -73.6908 -11.4431 1.02706
LeftForeArm  -41.4389 -56.8825 -19.9238
LeftHand  0.144388 5.82334 34.1841
RightShoulder  0.194019 -7.97263 -14.4553
RightArm  -82.3718 0.81267 -8.20501
RightForeArm  -50.313 49.6328 15.625
RightHand  -1.81201 0.824421 -34.7794
LeftUpLeg  -39.6636 32.8588 2.51698
LeftLeg  77.718 1.3553 9.00544
LeftFoot  -30.613 -1.38078 -9.21275
LeftToes  -4.0021e-011 8.38769e-011 -3.99229e-011
393
root  -1.75954 29.6259 -15.1641 -102.06 -88.7724 99.8934
RightUpLeg  -45.5841 -28.872 -1.10846
RightLeg  84.4286 -0.855142 -17.4164
RightFoot  -31.2493 1.54551 10.0137
RightToes  -1.33073e-015 0 -3.6325e-017
Spine  37.1207 0.314802 -0.316909
Spine1  -18.3785 0.409225 -1.76971
HEad  -20.7316 10.8263 -6.70336
LeftShoulder1  1.48389 12.2862 28.7815
LeftArm  -79.0584 -8.03357 1.87962
LeftForeArm  -50.8501 -49.3597 -15.4524
LeftHand  0.817542 7.90091 36.2031
RightShoulder  0.478613 -9.13757 -19.2782
RightArm  -83.8484 -2.05427 -13.7968
RightForeArm  -69.369 38.2542 11.0494
RightHand  1.81707 -9.96493 -43.3742
LeftUpLeg  -43.837 33.0789 1.15767
LeftLeg  83.6551 0.533401 10.4928
LeftFoot  -34.3828 -1.37202 -7.71866
LeftToes  -4.0021e-011 8.38769e-011 -3.99229e-011
394
root  -1.71011 29.0734 -14.708 -57.1255 -89.4191 53.5702
RightUpLeg  -45.2915 -29.5905 -2.29592
RightLeg  86.9869 -0.0110239 -16.5136
RightFoot  -30.7534 1.70681 11.179
RightToes  -1.33073e-015 0 -3.6325e-017
Spine  37.6609 0.0939995 0.71521
Spine1  -15.7598 0.537503 -1.45156
HEad  -23.6702 10.2318 -7.56745
LeftShoulder1  1.78392 12.4324 32.1394
LeftArm  -81.2715 -4.16338 -3.57284
LeftForeArm  -48.548 -53.1682 -17.9318
LeftHand  0.765786 7.71753 36.2875
RightShoulder  0.539044 -9.1737 -20.3386
RightArm  -81.7201 -6.82553 -13.2002
RightForeArm  -78.3701 40.7837 12.0851
RightHand  5.76173 -19.2701 -45.1744
LeftUpLeg  -43.7367 31.9113 1.63266
LeftLeg  86.4205 0.0395442 11.2214
LeftFoot  -36.0892 -1.51723 -7.89621
LeftToes  -4.0021e-011 8.38769e-011 -3.99229e-011
395
root  -2.00828 29.4909 -14.2616 -1.12927 -89.2641 -4.03699
RightUpLeg  -41.29 -29.3028 -4.40403
RightLeg  85.2006 -0.54864 -16.3232
RightFoot  -29.594 1.7842 12.3259
RightToes  -1.33073e-015 0 -3.6325e-017
Spine  36.8645 -0.104413 1.58399
Spine1  -14.6034 0.589143 -1.7763
HEad  -19.8422 9.95232 -6.09598
LeftShoulder1  1.36867 10.8725 30.4687
LeftArm  -78.2129 -3.52734 -11.5442
LeftForeArm  -33.1107 -65.8036 -30.3391
LeftHand  0.351939 6.46551 35.7743
RightShoulder  0.267128 -7.79256 -16.4694
RightArm  -78.039 -10.4237 -7.44882
RightForeArm  -66.5176 56.5332 21.1539
RightHand  5.32773 -18.7703 -42.9745
LeftUpLeg  -40.1294 30.2998 2.58109
LeftLeg  85.1713 0.300721 11.357
LeftFoot  -36.1138 -1.74571 -8.93343
LeftToes  -4.0021e-011 8.38769e-011 -3.99229e-011
396
root  -2.5398 30.7662 -13.7974 -21.3049 -89.1919 15.4827
RightUpLeg  -35.9059 -28.2893 -6.89857
RightLeg  79.584 -2.14778 -15.9332
RightFoot  -27.3322 1.68716 13.2937
RightToes  -1.33073e-015 0 -3.6325e-017
Spine  34.6909 -0.318074 1.64351
Spine1  -14.7129 0.340985 -2.21116
HEad  -13.3458 10.0912 -4.5336
LeftShoulder1  0.576111 8.71837 22.0382
LeftArm  -68.3573 -4.69023 -16.8212
LeftForeArm  2.3382 -76.3517 -63.3565
LeftHand  0.313773 6.33339 36.0411
RightShoulder  -0.0142622 -5.90222 -8.71727
RightArm  -72.6057 -11.2654 0.842483
RightForeArm  -23.699 73.6035 49.2403
RightHand  1.1411 -8.39733 -40.0452
LeftUpLeg  -35.2517 29.5642 2.72639
LeftLeg  80.2644 1.287 11.3374
LeftFoot  -33.7005 -1.65234 -9.31939
LeftToes  -4.0021e-011 8.38769e-011 -3.99229e-011
